# xmcd CD database file
#
# Track frame offsets:
#	150
#	19572
#	36660
#	55968
#	66518
#	81903
#	102241
#	118701
#	133126
#	147211
#	163543
#	179251
#
# Disc length: 2604 seconds
#
# Revision: 6
# Processed by: cddbd v1.5.2PL0 Copyright (c) Steve Scherf et al.
# Submitted via: CDex 1.51
#
DISCID=ad0a2a0c
DTITLE=Kris Kristofferson - Songs Of Kristofferson
DYEAR=1977
DGENRE=Country
TTITLE0=The Silver-Tongued Devil
TTITLE1=Loving Her Was Easier (Than Anything I'll Ever Do Again)
TTITLE2=Me And Bobby McGee
TTITLE3=Help Me Make It Through The Night
TTITLE4=For The Good Times
TTITLE5=Sunday Mornin' Comin' Down
TTITLE6=You Show Me Yours (And I'll Show You Mine)
TTITLE7=The Pilgrim: Chapter 33 (Hang In, Hopper)
TTITLE8=Stranger
TTITLE9=I Got A Life Of My Own
TTITLE10=Why Me
TTITLE11=Who's To Bless And Who's To Blame
EXTD=YEAR: 1977
EXTT0=
EXTT1=
EXTT2=
EXTT3=
EXTT4=
EXTT5=
EXTT6=
EXTT7=
EXTT8=
EXTT9=
EXTT10=
EXTT11=
PLAYORDER=
